# xmcd CD database file
#
# Track frame offsets:
#	150
#	4333
#	24660
#	45218
#	60085
#	84040
#	101922
#	123734
#	149313
#	168308
#	184730
#
# Disc length: 2753 seconds
#
# Revision: 1
# Processed by: cddbd v1.5.2PL0 Copyright (c) Steve Scherf et al.
# Submitted via: CDex 1.70beta2
#
DISCID=830abf0b
DTITLE=On-stage Player - On-stage Player
DYEAR=2006
DGENRE=Jazz
TTITLE0=Turning Track
TTITLE1=Love is Simple
TTITLE2=Cry of the Sea
TTITLE3=All About You
TTITLE4=You Don't Trust me At All
TTITLE5=Close Your Eyes
TTITLE6=Don't Leave me Love
TTITLE7=Moonlight of Our City
TTITLE8=Love Comes Naturally
TTITLE9=Wound of Love
TTITLE10=Black Humor
EXTD=YEAR: 2006
EXTT0=
EXTT1=
EXTT2=
EXTT3=
EXTT4=
EXTT5=
EXTT6=
EXTT7=
EXTT8=
EXTT9=
EXTT10=
PLAYORDER=
